<?xml version="1.0" encoding="UTF-8"?>
<svg id="Layer_1" data-name="Layer 1" xmlns="http://www.w3.org/2000/svg" viewBox="0 0 302.1 327.71">
  <g>
    <path d="M15.87,181.59c2.12-5.88,4.17-11.34,6.17-16.4,1.99-5.05,3.47-7.58,4.41-7.58.47,0,.82-.12,1.06-.35-.47,0-.94-.23-1.41-.7,0-.71.29-1.24.88-1.59.58-.35.88-1,.88-1.94v-.71l-1.06.71c0-1.17.29-1.76.88-1.76s.88-.35.88-1.06h-.7c0-1.17.41-2.12,1.23-2.82.82-.7,1.35-1.76,1.59-3.17l.35-2.12,5.29-19.04-.35-.35c-.24,0-.47-.06-.7-.18-.24-.12-.47-.18-.7-.18h-5.29c-.71-.23-1.88-.64-3.53-1.23-1.65-.58-3.3-1.23-4.94-1.94-1.65-.7-3.06-1.53-4.23-2.47-1.18-.94-1.76-1.76-1.76-2.47,0-1.17.29-1.76.88-1.76s1.47-.23,2.64-.71c-2.35-.94-3.53-2.82-3.53-5.64h2.12c.23,0,.94-.06,2.12-.18,1.17-.11,2.35-.18,3.53-.18s2.29-.06,3.35-.18c1.06-.12,1.7-.18,1.94-.18h7.23c1.29,0,2.76-.06,4.41-.18,1.64-.12,3.11-.41,4.41-.88,1.29-.47,1.94-1.17,1.94-2.12v-.71l3.53-9.52,3.53-4.94.7-6.35,1.76.35.71-6.35,7.4-9.17-3.17-2.47,3.53-7.05c.23,0,.82-1.17,1.76-3.53.94-2.35,2.06-5.17,3.35-8.46,1.29-3.29,2.58-6.75,3.88-10.4,1.29-3.64,2.29-6.75,3-9.34l1.76-3.88-.35-.35c0-.47.18-1.17.53-2.12.35-.94,1.11-2.35,2.29-4.23.23-.47.53-1.35.88-2.64.35-1.29.76-2.7,1.24-4.23.47-1.53,1-2.94,1.59-4.23.58-1.29,1.35-2.17,2.29-2.64l1.76,1.06c-.24,0,.12-.06,1.06-.18.94-.12,1.88-.41,2.82-.88,2.35,2.12,4.46,3.59,6.35,4.41,1.88.83,3.58,1.47,5.11,1.94,1.53.47,2.88,1.06,4.06,1.76,1.17.71,2.12,2,2.82,3.88,0,.47.41,1.88,1.24,4.23.82,2.35,1.23,4,1.23,4.94v.35c3.99,3.29,7.34,7.4,10.05,12.34,2.7,4.94,4.06,9.17,4.06,12.69l-.35,2.12,6.35,23.62v5.29c1.41,0,2.12.35,2.12,1.06-.47.47-.7,1.06-.7,1.76l-.7,1.41.7.71v9.17h.7c0,.47-.12.94-.35,1.41-.24.47-.35.94-.35,1.41l1.41,1.41c-.24.94-.35,2.24-.35,3.88s.11,3.12.35,4.41c.23,1.29.58,2.64,1.06,4.06-.7.47-1.06,1.65-1.06,3.53,0,.71.12,1.12.35,1.23.23.12.35.41.35.88,0,.71-.12,1.29-.35,1.76l1.76-.7-1.06,1.41,1.06,1.41-1.06,3.17c0,.94.41,1.76,1.24,2.47.82.7,1.23,1.65,1.23,2.82-.47,0-.71.24-.71.71v.35c0,.7.12,1.12.35,1.23.23.12.35.41.35.88l-.71,1.41c0,2.59.12,4.12.35,4.58.23.47.94,1.65,2.12,3.53v10.22c.47.47.88.77,1.23.88.35.12.53.41.53.88,0,.24-.12.47-.35.71l.7,1.06c0,1.18.18,2.29.53,3.35.35,1.06.53,1.82.53,2.29,0,1.65-.53,2.76-1.59,3.35-1.06.59-1.59,1.59-1.59,3-.24,0-.41-.35-.53-1.06-.12-.71-.65-1.06-1.59-1.06,0,1.18-.06,1.82-.18,1.94-.12.11-.65.18-1.59.18h-1.76c-.47,0-.88-.47-1.24-1.41-.35-.94-.77-1.41-1.23-1.41h-5.99c-.94,0-1.41-.18-1.41-.53s-.24-.53-.7-.53c-.94,0-1.65.3-2.12.88-.47.59-1.29.88-2.47.88-4.23-.94-6.35-3.64-6.35-8.11,0-.47.18-.88.53-1.23s.53-.64.53-.88c0-3.05-.35-5.7-1.06-7.93-.7-2.23-1.06-4.76-1.06-7.58.7,0,1.17.18,1.41.53.23.35.58.77,1.06,1.23-.47,0-.7.59-.7,1.76,0,.94.82,1.65,2.47,2.12,0-.47-.06-.71-.18-.71-.12,0-.18-.12-.18-.35s.06-.41.18-.53c.11-.12.18-.29.18-.53-.24-.7-.35-1.59-.35-2.64s-.12-2.17-.35-3.35l-.71-4.23-.7-1.06-.35,3.17-.71-1.76-1.41,4.58c0-.7-.06-1.7-.18-3-.12-1.29-.18-2.64-.18-4.06v-5.64c-.24-.47-1-.88-2.29-1.23-1.29-.35-2.71-.58-4.23-.7-1.53-.12-3-.18-4.41-.18h-3.17c-1.18,0-2.12.12-2.82.35-.71.24-1.65.35-2.82.35-1.41,0-2.94-.18-4.58-.53-1.65-.35-2.82-.53-3.53-.53h-3.53c-1.41,0-2.41.59-3,1.76-.59,1.18-1,2.53-1.23,4.06-.24,1.53-.35,3-.35,4.41s-.12,2.35-.35,2.82l-1.41,2.82,2.12.7-.7,1.06h-3.53c0,1.65-.59,3.65-1.76,5.99-1.18,2.35-2.24,4.23-3.17,5.64l-.7,1.06c0,.24-.06.47-.18.7-.12.24-.18.47-.18.71v.7c0,.71.35,1.41,1.06,2.12-1.18,1.18-2.24,2.77-3.17,4.76-.94,2-1.65,3.94-2.12,5.82v3.17c-.94,2.58-2.12,5.34-3.53,8.29-1.41,2.94-2.12,5.47-2.12,7.58h2.12c-.47.71-1.06,1.06-1.76,1.06s-1.06.47-1.06,1.41h.35c.47,0,.7.47.7,1.41,0,1.41-.41,2.52-1.23,3.35-.83.82-1.65,1.64-2.47,2.47-.83.82-1.65,1.82-2.47,3-.83,1.17-1.23,2.82-1.23,4.94l1.06.71c0,.7-.7,2.12-2.12,4.23s-2.35,3.76-2.82,4.94c0,.7-.71,1.17-2.12,1.41,0,.7.23,1.06.71,1.06s.94.12,1.41.35c-.47.94-.94,1.64-1.41,2.12-.47.47-.71,1.17-.71,2.12l2.12-.71c0,.94-.18,1.53-.53,1.76-.35.23-.53.71-.53,1.41v.35l-3.88,9.52h1.06l-1.41,10.58c-.71.94-1.06,1.7-1.06,2.29s-.24,1.46-.7,2.64l.35.35c0,.47-.53.82-1.59,1.06-1.06.23-2.18.94-3.35,2.12-.47,0-1-.35-1.59-1.06-.59-.7-.88-1.29-.88-1.76,0-.24.11-.47.35-.7-1.18-.71-1.76-1.18-1.76-1.41s-.47-.35-1.41-.35l-1.06,1.41c-.47,1.41-.7,1.99-.7,1.76l-7.76-1.06,6.7-2.12c-.47-.24-1.82-.41-4.05-.53-2.24-.12-3.7-.18-4.41-.18-.47.47-.71.82-.71,1.06s-.35.35-1.06.35v-2.47c-.24.23-.47.35-.71.35-.47,0-1.29-.18-2.47-.53-1.18-.35-2.24-.53-3.17-.53v-1.76c-1.65,0-2.94.35-3.88,1.06-1.18-1.18-2.18-2.64-3-4.41-.83-1.76-1.47-2.88-1.94-3.35,1.64-.94,2.52-2.12,2.64-3.53.12-1.41.18-3.06.18-4.94h1.06l1.76,3.53c.47-3.06,1.23-6.35,2.29-9.87,1.06-3.53,1.59-6.58,1.59-9.17v-3.88l1.06-4.23c.94-1.88,1.64-3.29,2.12-4.23.47-.94.94-2.24,1.41-3.88l1.06-1.41h3.88l5.64-1.76v1.76l-2.12,3.88v3.88l2.47,2.12c0-1.18.65-2.53,1.94-4.05,1.29-1.53,1.94-2.77,1.94-3.7v-5.64c0-.71-.3-1.23-.88-1.59-.59-.35-1.12-.53-1.59-.53h-1.76l-2.12,2.12h-5.64l-1.06-7.05ZM11.28,227.07c0-1.18-.35-1.76-1.06-1.76-.47,0-.71.58-.71,1.76,0,.94.23,1.41.71,1.41.7,0,1.06-.47,1.06-1.41ZM13.4,210.5c-.47,1.17-.94,2.35-1.41,3.53-.47,1.17-.71,2.35-.71,3.53v5.29l2.12-5.29v-7.05ZM18.33,209.79c0,.47-.24,1.64-.7,3.53l-.7,2.12v9.87l2.12-1.76c0-1.18.18-2.24.53-3.17.35-.94.53-1.88.53-2.82v-9.87l-1.76,2.12ZM25.39,242.23c0-.24-1-.35-3-.35h-3.35c-.24,0-.35.12-.35.35l.35.71h5.11c.82,0,1.23-.24,1.23-.71ZM22.57,202.04c-.94,0-1.41.71-1.41,2.12,0,1.17.47,1.76,1.41,1.76,1.17,0,1.76-.59,1.76-1.76,0-1.41-.59-2.12-1.76-2.12ZM26.44,203.8c-.94,0-1.41.71-1.41,2.12,0,1.17.47,1.76,1.41,1.76,1.17,0,1.76-.59,1.76-1.76,0-1.41-.59-2.12-1.76-2.12ZM34.2,247.52v-.7h-.7l.7.7ZM38.08,241.53h.7l-.7-1.06v1.06ZM86.74,101.55h8.99c1.99,0,3.99-.18,5.99-.53,1.99-.35,3.7-.88,5.11-1.59,1.41-.7,2.12-1.64,2.12-2.82h-1.41v-4.94c-.24,0-.35-.12-.35-.35v-2.12h-.71c0-.47.12-.82.35-1.06.23-.23.35-.58.35-1.06v-.7l-1.76-.35c.7,0,1.29-.23,1.76-.71l-.71-2.82v-.71c0-.47.12-.76.35-.88.23-.12.35-.53.35-1.23,0-1.41-.41-2.82-1.23-4.23-.83-1.41-1.24-2.7-1.24-3.88l.71-2.47-3.88-9.52v-.71c0-.47-.24-1.17-.71-2.12-.47-.94-.7-1.53-.7-1.76-2.12,6.12-4.47,13.11-7.05,20.98-2.59,7.88-5.17,14.75-7.76,20.63l-.7,4.23,2.12.7ZM116.71,146.68v3.88h.71c0-.47.06-.82.18-1.06.12-.23.18-.58.18-1.06,0-.7-.35-1.29-1.06-1.76ZM117.06,154.08v1.06c0,1.65.58,2.47,1.76,2.47,0-.23.06-.64.18-1.23.12-.58.18-1.11.18-1.59,0-1.41-.47-2.12-1.41-2.12-.47,0-.71.47-.71,1.41Z"/>
    <path d="M204.51,22.21c.47-.23,1.17-.35,2.12-.35l31.73-.7c.47,0,1.29-.12,2.47-.35,1.17-.23,1.88-.35,2.12-.35h1.06c.7,0,2.23.94,4.58,2.82,2.35,1.88,3.53,3.53,3.53,4.94l2.47,6.35-3.88,5.29.7.71-1.06,7.76c-.47,0-1.06.59-1.76,1.76l.71.35c-1.41.47-2.88,1.59-4.41,3.35-1.53,1.76-3,3.76-4.41,5.99-1.41,2.24-2.77,4.41-4.06,6.52-1.29,2.12-2.41,3.65-3.35,4.58v.35c0,1.18-.83,3.12-2.47,5.82-1.65,2.71-2.47,4.88-2.47,6.52l-8.46,19.04c-.7.47-2,1.71-3.88,3.7-1.88,2-2.71,3.23-2.47,3.7v1.06l1.41-1.06.35,1.06c-.94.47-1.65,1.29-2.12,2.47-.47,1.18-1.06,2.12-1.76,2.82l1.76.35-2.47,1.41v2.12c-.71.7-1.65,1.06-2.82,1.06l-1.06,2.47c-.47.7-1.18,1.82-2.12,3.35-.94,1.53-1.88,3.06-2.82,4.58-.94,1.53-1.76,3.06-2.47,4.58-.7,1.53-1.06,2.64-1.06,3.35h1.41c1.17,0,2.17.06,3,.18.82.12,1.7.18,2.64.18,1.41,0,3.05-.35,4.94-1.06l21.86,1.41-.35,1.06,2.12-1.06c.23,0,.58.18,1.06.53.47.35.94.53,1.41.53h8.81c2.58,0,5.58,1.06,8.99,3.17,3.4,2.12,5.7,4.58,6.88,7.4l3.17-2.47,2.12,6.35v5.29c-1.65,0-3.12.24-4.41.71-1.29.47-2.53.7-3.7.7h-1.76l.7-1.06-1.41-.35v-1.06c-1.18,0-2.53.24-4.05.7-1.53.47-3.12.7-4.76.7-1.18,0-2.53-.06-4.05-.18-1.53-.12-2.88-.18-4.06-.18h-3.17c0,.24-.24.35-.7.35h-1.06c-.7,0-1.47-.06-2.29-.18-.83-.12-1.59-.18-2.29-.18-1.65,0-4,.12-7.05.35-3.06.24-5.76.83-8.11,1.76l-1.41.71c-2.59,0-5.11-.18-7.58-.53-2.47-.35-5-.53-7.58-.53-2.82,0-5.53.47-8.11,1.41l-1.41.35c-.24.23-.65.53-1.23.88-.59.35-1.23.53-1.94.53l-17.28-.7-5.29.35-4.94-1.41c0-.47-1.36-1.64-4.06-3.53-2.71-1.88-4.65-4.23-5.82-7.05l1.06-5.29v-3.88c0-2.12.47-3.7,1.41-4.76.94-1.06,2.23-2.29,3.88-3.7,1.64-1.41,3.35-3.29,5.11-5.64,1.76-2.35,3.58-5.76,5.47-10.23l2.12-3.17,2.12-2.12,3.17-6.7,1.06.35,1.76-.7.35-1.76h-1.41l2.82-4.94,2.12-3.17.35-3.88,2.12-.7.7.35,1.76-.7-.7-1.76,1.76-3.88,4.23-2.82c.71-.71,1.41-1.64,2.12-2.82.7-1.17,1.29-2.23,1.76-3.17v-.7c3.05-6.58,6.35-12.46,9.87-17.63,3.53-5.17,7.4-11.4,11.64-18.69h-2.82c-2.59,0-4.18-.06-4.76-.18-.59-.12-1.82-.18-3.7-.18-.47,0-1.18.3-2.12.88-.94.59-1.76.88-2.47.88-.47,0-.71-.12-.71-.35h-10.22l-5.29-1.06c-.24-.23-.71-.35-1.41-.35s-1.59.12-2.64.35c-1.06.24-1.82.35-2.29.35h-.35l-.71.7c-.24.24-.7.35-1.41.35l-3.17-1.06c-.47-.23-1.18-.35-2.12-.35-.24.24-.59.35-1.06.35-1.18,0-2.41-1-3.7-3-1.29-1.99-2.53-3.58-3.7-4.76l-4.23-3.17c0-.23-.24-1.29-.7-3.17l-.7-1.41c0-1.17.47-1.76,1.41-1.76s1.76-.35,2.47-1.06h17.63c1.88.24,3.05.41,3.53.53.47.12,1.17.41,2.12.88.7,0,1.11-.06,1.23-.18.12-.11.29-.29.53-.53.23.24.7.35,1.41.35.47,0,1-.06,1.59-.18.58-.12,1.11-.18,1.59-.18s.94.06,1.41.18c.47.12.94.18,1.41.18.71,0,1.06-.23,1.06-.71l1.06,1.06c.47.47.94.7,1.41.7.47-.47,1.41-.88,2.82-1.23,1.41-.35,2.7-.53,3.88-.53l-.7-1.76h4.94ZM167.13,125.52c-.47,0-1.53.47-3.17,1.41-1.65.94-2.59,1.88-2.82,2.82l-3.88,8.46-.35,2.82c.23-.71.71-1.64,1.41-2.82.71-1.17,1.47-2.41,2.29-3.7.82-1.29,1.59-2.41,2.29-3.35.7-.94,1.29-1.53,1.76-1.76l2.12-2.12.35-1.76ZM169.6,121.29c-.24,0-.35-.06-.35-.18s-.12-.18-.35-.18c-.47,0-.7.47-.7,1.41,0,.24.06.59.18,1.06.12.47.41.7.88.7.71,0,1.06-.58,1.06-1.76,0-.7-.24-1.06-.7-1.06ZM185.82,96.61c.23-.23.35-.58.35-1.06,0-.23-.12-.35-.35-.35,0,.24-.12.35-.35.35l-.71.7c0,.94.23,1.41.71,1.41v-.35c.23-.23.35-.47.35-.7ZM193.22,80.04c-.24,0-.35-.06-.35-.18s-.12-.18-.35-.18c-.71,0-1.06.59-1.06,1.76,0,.94.35,1.41,1.06,1.41s1.06-.58,1.06-1.76c0-.71-.12-1.06-.35-1.06Z"/>
  </g>
  <g>
    <path d="M69.43,287.51c1.24-3.45,2.45-6.67,3.63-9.64,1.17-2.97,2.04-4.46,2.59-4.46.28,0,.48-.07.62-.21-.28,0-.55-.14-.83-.41,0-.41.17-.72.52-.93.34-.21.52-.59.52-1.14v-.41l-.62.41c0-.69.17-1.04.52-1.04s.52-.21.52-.62h-.41c0-.69.24-1.24.73-1.66.48-.41.79-1.04.93-1.87l.21-1.24,3.11-11.19-.21-.21c-.14,0-.28-.03-.41-.1-.14-.07-.28-.1-.41-.1h-3.11c-.41-.14-1.11-.38-2.07-.73-.97-.34-1.94-.73-2.9-1.14-.97-.41-1.8-.9-2.49-1.45-.69-.55-1.04-1.04-1.04-1.45,0-.69.17-1.04.52-1.04s.86-.14,1.55-.41c-1.38-.55-2.07-1.66-2.07-3.32h1.24c.14,0,.55-.03,1.24-.1.69-.07,1.38-.1,2.07-.1s1.35-.03,1.97-.1c.62-.07,1-.1,1.14-.1h4.25c.76,0,1.62-.03,2.59-.1.96-.07,1.83-.24,2.59-.52.76-.28,1.14-.69,1.14-1.24v-.41l2.07-5.6,2.07-2.9.41-3.73,1.04.21.41-3.73,4.35-5.39-1.86-1.45,2.07-4.14c.14,0,.48-.69,1.04-2.07.55-1.38,1.21-3.04,1.97-4.97.76-1.93,1.52-3.97,2.28-6.11.76-2.14,1.35-3.97,1.76-5.49l1.04-2.28-.21-.21c0-.28.1-.69.31-1.24.21-.55.65-1.38,1.35-2.49.14-.28.31-.79.52-1.55.21-.76.45-1.59.72-2.49.28-.9.59-1.73.93-2.49.34-.76.79-1.28,1.35-1.55l1.04.62c-.14,0,.07-.03.62-.1.55-.07,1.1-.24,1.66-.52,1.38,1.24,2.62,2.11,3.73,2.59,1.11.49,2.1.87,3.01,1.14.9.28,1.69.62,2.38,1.04.69.41,1.24,1.17,1.66,2.28,0,.28.24,1.11.72,2.49.48,1.38.73,2.35.73,2.9v.21c2.35,1.94,4.32,4.35,5.91,7.25,1.59,2.9,2.38,5.39,2.38,7.46l-.21,1.24,3.73,13.88v3.11c.83,0,1.24.21,1.24.62-.28.28-.41.62-.41,1.04l-.41.83.41.41v5.39h.41c0,.28-.07.55-.21.83-.14.28-.21.55-.21.83l.83.83c-.14.55-.21,1.31-.21,2.28s.07,1.83.21,2.59c.14.76.34,1.55.62,2.38-.41.28-.62.97-.62,2.07,0,.41.07.66.21.73.14.07.21.24.21.52,0,.41-.07.76-.21,1.04l1.04-.41-.62.83.62.83-.62,1.87c0,.55.24,1.04.72,1.45.48.41.73.97.73,1.66-.28,0-.41.14-.41.41v.21c0,.41.07.66.21.73.14.07.21.24.21.52l-.41.83c0,1.52.07,2.42.21,2.69.14.28.55.97,1.24,2.07v6.01c.28.28.52.45.73.52.21.07.31.24.31.52,0,.14-.07.28-.21.41l.41.62c0,.69.1,1.35.31,1.97.21.62.31,1.07.31,1.35,0,.97-.31,1.63-.93,1.97-.62.35-.93.93-.93,1.76-.14,0-.24-.21-.31-.62-.07-.41-.38-.62-.93-.62,0,.69-.04,1.07-.1,1.14-.07.07-.38.1-.93.1h-1.04c-.28,0-.52-.28-.72-.83-.21-.55-.45-.83-.73-.83h-3.52c-.55,0-.83-.1-.83-.31s-.14-.31-.41-.31c-.55,0-.97.18-1.24.52-.28.35-.76.52-1.45.52-2.49-.55-3.73-2.14-3.73-4.77,0-.28.1-.52.31-.73s.31-.38.31-.52c0-1.79-.21-3.35-.62-4.66-.41-1.31-.62-2.8-.62-4.46.41,0,.69.1.83.31.14.21.34.45.62.73-.28,0-.41.35-.41,1.04,0,.55.48.97,1.45,1.24,0-.28-.04-.41-.1-.41s-.1-.07-.1-.21.03-.24.1-.31c.07-.07.1-.17.1-.31-.14-.41-.21-.93-.21-1.55s-.07-1.28-.21-1.97l-.41-2.49-.41-.62-.21,1.86-.41-1.04-.83,2.69c0-.41-.04-1-.1-1.76-.07-.76-.1-1.55-.1-2.38v-3.32c-.14-.28-.59-.52-1.35-.73-.76-.21-1.59-.34-2.49-.41-.9-.07-1.76-.1-2.59-.1h-1.86c-.69,0-1.24.07-1.66.21-.41.14-.97.21-1.66.21-.83,0-1.73-.1-2.69-.31-.97-.21-1.66-.31-2.07-.31h-2.07c-.83,0-1.42.35-1.76,1.04-.35.69-.59,1.49-.73,2.38-.14.9-.21,1.76-.21,2.59s-.07,1.38-.21,1.66l-.83,1.66,1.24.41-.41.62h-2.07c0,.97-.35,2.14-1.04,3.52-.69,1.38-1.31,2.49-1.86,3.32l-.41.62c0,.14-.04.28-.1.41-.07.14-.1.28-.1.41v.41c0,.41.21.83.62,1.24-.69.69-1.31,1.63-1.86,2.8-.55,1.18-.97,2.32-1.24,3.42v1.86c-.55,1.52-1.24,3.14-2.07,4.87-.83,1.73-1.24,3.21-1.24,4.46h1.24c-.28.41-.62.62-1.04.62s-.62.28-.62.83h.21c.28,0,.41.28.41.83,0,.83-.24,1.48-.73,1.97-.49.48-.97.97-1.45,1.45-.49.48-.97,1.07-1.45,1.76-.49.69-.73,1.66-.73,2.9l.62.41c0,.41-.41,1.24-1.24,2.49s-1.38,2.21-1.66,2.9c0,.41-.41.69-1.24.83,0,.41.14.62.41.62s.55.07.83.21c-.28.55-.55.96-.83,1.24-.28.28-.41.69-.41,1.24l1.24-.41c0,.55-.1.9-.31,1.04-.21.14-.31.41-.31.83v.21l-2.28,5.59h.62l-.83,6.22c-.41.55-.62,1-.62,1.35s-.14.86-.41,1.55l.21.21c0,.28-.31.48-.93.62-.62.14-1.28.55-1.97,1.24-.28,0-.59-.21-.93-.62-.35-.41-.52-.76-.52-1.04,0-.14.07-.28.21-.41-.69-.41-1.04-.69-1.04-.83s-.28-.21-.83-.21l-.62.83c-.28.83-.41,1.17-.41,1.04l-4.56-.62,3.94-1.24c-.28-.14-1.07-.24-2.38-.31-1.31-.07-2.18-.1-2.59-.1-.28.28-.41.48-.41.62s-.21.21-.62.21v-1.45c-.14.14-.28.21-.41.21-.28,0-.76-.1-1.45-.31-.69-.21-1.31-.31-1.86-.31v-1.04c-.97,0-1.73.21-2.28.62-.69-.69-1.28-1.55-1.76-2.59-.49-1.04-.86-1.69-1.14-1.97.97-.55,1.48-1.24,1.55-2.07.07-.83.1-1.8.1-2.9h.62l1.04,2.07c.28-1.8.73-3.73,1.35-5.8s.93-3.87.93-5.39v-2.28l.62-2.49c.55-1.11.97-1.94,1.24-2.49.28-.55.55-1.31.83-2.28l.62-.83h2.28l3.32-1.04v1.04l-1.24,2.28v2.28l1.45,1.24c0-.69.38-1.49,1.14-2.38.76-.9,1.14-1.63,1.14-2.18v-3.32c0-.41-.18-.73-.52-.93-.35-.21-.66-.31-.93-.31h-1.04l-1.24,1.24h-3.32l-.62-4.14ZM66.74,314.24c0-.69-.21-1.04-.62-1.04-.28,0-.41.34-.41,1.04,0,.55.14.83.41.83.41,0,.62-.28.62-.83ZM67.98,304.5c-.28.69-.55,1.38-.83,2.07-.28.69-.41,1.38-.41,2.07v3.11l1.24-3.11v-4.14ZM70.88,304.09c0,.28-.14.97-.41,2.07l-.41,1.24v5.8l1.24-1.04c0-.69.1-1.31.31-1.86.21-.55.31-1.11.31-1.66v-5.8l-1.04,1.24ZM75.03,323.15c0-.14-.59-.21-1.76-.21h-1.97c-.14,0-.21.07-.21.21l.21.41h3.01c.48,0,.73-.14.73-.41ZM73.37,299.53c-.55,0-.83.41-.83,1.24,0,.69.28,1.04.83,1.04.69,0,1.04-.35,1.04-1.04,0-.83-.35-1.24-1.04-1.24ZM75.65,300.56c-.55,0-.83.41-.83,1.24,0,.69.28,1.04.83,1.04.69,0,1.04-.35,1.04-1.04,0-.83-.35-1.24-1.04-1.24ZM80.21,326.26v-.41h-.41l.41.41ZM82.49,322.74h.41l-.41-.62v.62ZM111.09,240.46h5.28c1.17,0,2.35-.1,3.52-.31,1.17-.21,2.18-.52,3-.93.83-.41,1.24-.97,1.24-1.66h-.83v-2.9c-.14,0-.21-.07-.21-.21v-1.24h-.41c0-.28.07-.48.21-.62.14-.14.21-.34.21-.62v-.41l-1.04-.21c.41,0,.76-.14,1.04-.41l-.41-1.66v-.41c0-.28.07-.45.21-.52.14-.07.21-.31.21-.73,0-.83-.24-1.66-.73-2.49-.49-.83-.72-1.59-.72-2.28l.41-1.45-2.28-5.6v-.41c0-.28-.14-.69-.41-1.24-.28-.55-.41-.9-.41-1.04-1.24,3.59-2.63,7.7-4.14,12.33-1.52,4.63-3.04,8.67-4.56,12.12l-.41,2.49,1.24.41ZM128.7,266.99v2.28h.41c0-.28.03-.48.1-.62.07-.14.1-.34.1-.62,0-.41-.21-.76-.62-1.04ZM128.91,271.34v.62c0,.97.34,1.45,1.04,1.45,0-.14.03-.38.1-.73.07-.34.1-.65.1-.93,0-.83-.28-1.24-.83-1.24-.28,0-.41.28-.41.83Z"/>
    <path d="M174.38,260.11v1.66c0,.97.14,1.73.41,2.28l.41-.21c0,.55-.04,1.21-.1,1.97-.07.76-.38,1.28-.93,1.55l-1.04,9.12c-.55.14-1.17.21-1.86.21h-1.04c-.28,0-.62.14-1.04.41l-.21-1.66c-.41.28-.62.69-.62,1.24v2.07c-.28-.28-.62-.41-1.04-.41-.28,0-.38.03-.31.1.07.07-.04.1-.31.1-.41,0-1.24-.28-2.49-.83-1.24-.55-2.63-.83-4.14-.83-.83,0-1.45.07-1.86.21,0-.28.07-.62.21-1.04.14-.41.21-.76.21-1.04-.69-.69-1.14-1.66-1.35-2.9s-.86-1.86-1.97-1.86h-.41c.41-.69.65-1.48.73-2.38.07-.9.1-1.69.1-2.38,0-.28-.14-1.1-.41-2.49l-.21-2.69v-2.49c.14-.28.45-.55.93-.83.48-.28.86-.55,1.14-.83,0-.28-.14-.69-.41-1.24-.28-.55-.41-1.11-.41-1.66l1.04-1.24c-.14,0-.21-.34-.21-1.04,0-.83.03-1.79.1-2.9.07-1.1.1-2,.1-2.69,0-.83-.07-1.24-.21-1.24l1.86-23.63c.14-.97.45-1.55.93-1.76.48-.21,1.07-.31,1.76-.31s1.59.18,2.69.52c1.1.35,2.18.73,3.21,1.14,1.04.41,1.97.87,2.8,1.35.83.49,1.38.93,1.66,1.35.14.14.38.62.73,1.45.34.83.73,1.69,1.14,2.59.41.9.86,1.73,1.35,2.49.48.76.93,1.14,1.35,1.14l.62-.41c1.79-1.11,3.11-2.1,3.94-3.01.83-.9,2.28-1.55,4.35-1.97,0-.55.93-1.35,2.8-2.38s3.87-2.07,6.01-3.11c2.14-1.04,4.04-1.93,5.7-2.69,1.66-.76,2.21-1.14,1.66-1.14.69,0,1.73.28,3.11.83,1.38.55,2.62,1.38,3.73,2.49l3.94,3.94-2.9,3.94-3.11,1.04.41.83c-.69.83-1.83,1.31-3.42,1.45-1.59.14-2.8.49-3.63,1.04,0,.14.07.21.21.21l.21.21c-2.07.55-4.08,1.18-6.01,1.86-1.66.69-3.39,1.42-5.18,2.18-1.8.76-3.25,1.63-4.35,2.59l-3.11,3.32c0-.14-.38.04-1.14.52-.76.49-1.59,1.11-2.49,1.87-.9.76-1.76,1.59-2.59,2.49-.83.9-1.24,1.69-1.24,2.38v.21l1.66.62-1.24,10.36h-.21ZM182.46,229.65c-.28.28-.9.73-1.86,1.35-.97.62-1.59,1.07-1.86,1.35l-1.24,1.04h.21c.28-.41.76-.79,1.45-1.14.69-.34,1.41-.69,2.18-1.04.76-.34,1.41-.62,1.97-.83.55-.21.83-.45.83-.73s-.41-.55-1.24-.83c-.14,0-.21.1-.21.31s-.07.38-.21.52ZM193.24,225.09c-1.94.55-3.59,1.32-4.97,2.28l-2.07,1.24.21.41c1.79-.97,3.63-1.83,5.49-2.59,1.86-.76,3.49-1.28,4.87-1.55h-1.87c-.69,0-1.24.07-1.66.21Z"/>
    <path d="M191.42,266.67c0-.96.21-2.52.62-4.66.41-2.14,1-4.42,1.76-6.84.76-2.42,1.69-4.63,2.8-6.63,1.1-2,2.28-3.35,3.52-4.04l.62.62c-.97,1.11-1.97,2.56-3.01,4.35-1.04,1.8-1.55,3.45-1.55,4.97v1.66c.28-.97.86-2.38,1.76-4.25.9-1.86,1.35-3.21,1.35-4.04v-.41c1.11-1.38,1.93-2.28,2.49-2.69.55-.41,1.38-1.31,2.49-2.69l3.32-2.9c1.79-1.38,3.76-2.42,5.91-3.11,2.14-.69,4.18-1.17,6.11-1.45l4.14-.41c.83,0,2.07.18,3.73.52,1.66.35,3.25.83,4.77,1.45,1.52.62,2.87,1.35,4.04,2.18,1.17.83,1.76,1.73,1.76,2.69s-.8,1.69-2.38,2.18c-1.59.49-3.42.83-5.49,1.04-2.07.21-4.18.38-6.32.52-2.14.14-3.77.41-4.87.83l-4.97,9.53.21.41c-.69,1.52-1.42,3.08-2.18,4.66-.76,1.59-1.14,2.52-1.14,2.8v4.35l.83,1.45h1.87c3.04,0,6.15-.1,9.33-.31,3.18-.21,7.18-.73,12.02-1.55l-.21,1.66-.62,1.04c0,.28.24.49.73.62.48.14.86.21,1.14.21-.28.28-.41.62-.41,1.04,0,.28.07.49.21.62.14.14.21.35.21.62,0,.69-.49,1.35-1.45,1.97-.97.62-2.07,1.21-3.32,1.76-1.24.55-2.45.97-3.63,1.24-1.18.28-1.97.41-2.38.41l-10.36,1.45c-.41-.14-1.04-.21-1.86-.21-.69,0-1.28.04-1.76.1-.49.07-1,.1-1.55.1-1.52,0-2.38-.21-2.59-.62-.21-.41-.59-.69-1.14-.83-2.21-.41-4.08-.96-5.6-1.66-1.52-.69-2.69-1.38-3.52-2.07-.28-.28-.73-.76-1.35-1.45-.62-.69-1.24-1.41-1.87-2.18-.62-.76-1.14-1.52-1.55-2.28-.41-.76-.62-1.35-.62-1.76ZM197.64,256.52c0,.28-.07.62-.21,1.04-.14.41-.21.76-.21,1.04l.41,1.04c.14-.28.21-.96.21-2.07l-.21-1.04ZM198.05,255.69c0-.28.07-.62.21-1.04.14-.41.21-.76.21-1.04v-.41c-.55.41-.83,1.11-.83,2.07l.41.41Z"/>
    <path d="M247.6,235.15c-.14-.83-.38-1.55-.73-2.18-.35-.62-.52-1.41-.52-2.38v-.41c-.14-.14-.21-.28-.21-.41l.41-.41c.28-.96.65-2.28,1.14-3.94.48-1.66.73-3.24.73-4.77l-.41-1.04c0-.55.24-1.83.73-3.83.48-2,.86-4.38,1.14-7.15,0-.28-.04-.62-.1-1.04-.07-.41-.1-.76-.1-1.04,0-2.62.34-4.8,1.04-6.53.69-1.73,1.04-3.83,1.04-6.32,0-.83.07-1.93.21-3.32.14-1.38.34-2.69.62-3.94.28-1.24.62-2.35,1.04-3.32.41-.97.83-1.45,1.24-1.45l4.14-2.28c.55.14.9.24,1.04.31.14.07.28.1.41.1l.83-.41c.55.14,1.45.28,2.69.41,1.24.14,2.52.35,3.83.62,1.31.28,2.59.66,3.83,1.14,1.24.49,2.14,1.14,2.69,1.97l-1.86,4.35c0,.55-.18,1.49-.52,2.8-.35,1.31-.69,2.69-1.04,4.14-.35,1.45-.69,2.87-1.04,4.25-.35,1.38-.52,2.35-.52,2.9s.07,1.55.21,3c.14,1.45.28,2.52.41,3.21,0,.28-.18.62-.52,1.04-.35.41-.52.76-.52,1.04.28,0,.41.14.41.41s-.18.73-.52,1.35c-.35.62-.52,1.49-.52,2.59l.21,1.24-.41,1.66.41.21c-.14,2.21-.28,3.94-.41,5.18-.14,1.24-.24,2.42-.31,3.52-.07,1.11-.1,1.73-.1,1.86l.83,2.69v1.24l-1.45,4.35,1.45-.21c.41-.28,1.14-.62,2.18-1.04,1.04-.41,2.1-.83,3.21-1.24,1.11-.41,2.18-.83,3.21-1.24,1.04-.41,1.76-.69,2.18-.83.28,0,1.04-.38,2.28-1.14,1.24-.76,2-1.14,2.28-1.14h2.69c1.93,0,4.01.18,6.22.52,2.21.35,4.35.52,6.42.52l2.9,8.08-1.86,2.07c-.69,2.77-1.07,5.15-1.14,7.15-.07,2-.18,4.46-.31,7.36.28,1.11.41,1.8.41,2.07-.41,1.94-.83,4.18-1.24,6.74-.41,2.56-.62,5.01-.62,7.36,0,1.38.07,2.35.21,2.9l-1.04.62c-.41.14-.8.48-1.14,1.04-.35.55-.86.83-1.55.83-.28,0-.86-.28-1.76-.83-.9-.55-1.63-.83-2.18-.83h-.41l.41.62-.41.41c0,.28.28.41.83.41h.62v1.45c-2.9-.14-5.11-1.28-6.63-3.42-1.52-2.14-2.28-4.39-2.28-6.74,0-4.42-.31-8.74-.93-12.95-.62-4.21-.93-8.32-.93-12.33h-.41c-1.8,0-3.21.38-4.25,1.14-1.04.76-2.32,1.14-3.83,1.14l-.62.62c0,.14-.21.28-.62.41l-.41-.21c-.83.28-1.94.83-3.32,1.66-1.38.83-2.28,1.8-2.69,2.9.55,0,.83.35.83,1.04,0,.97-.45,1.76-1.35,2.38-.9.62-1.35,1.35-1.35,2.18l-.62,2.49,1.04,2.9-1.45,3.52v2.69l-.41,1.86,1.04,3.94-1.24,3.73-6.01-.62c-.28,0-.52-.04-.73-.1-.21-.07-.38-.1-.52-.1h-.41l-2.9-.83-1.87-1.24c-.14-.14-.45-.69-.93-1.66-.49-.97-.8-1.59-.93-1.86l.41-1.86-.83.41-1.24-1.24-.21-.83,1.04-2.28-1.04-.41v-4.35c.14,0,.55-.41,1.24-1.24l.62-1.04.21-1.87-1.04-.41.21-1.86,1.04-1.04c0-.41.14-1.11.41-2.07.28-.97.41-1.59.41-1.87l-.62-1.24v-2.9l.21-1.66-1.04-3.11.83.41c0-.28.14-.79.41-1.55.28-.76.41-1.35.41-1.76v-1.86ZM246.56,266.24v1.45l1.04-.62-.21-2.07-1.24.21.41,1.04ZM246.77,262.09c-.28,0-.41.21-.41.62,0,.69.21,1.04.62,1.04s.62-.28.62-.83-.21-.83-.62-.83h-.21ZM249.26,261.89c-.28.28-.41.49-.41.62s.14.21.41.21c.41,0,.62-.14.62-.41s-.14-.41-.41-.41h-.21Z"/>
  </g>
</svg>